#!OML:ASF I:\Random Stuff\random\construction\7_22_03\Session 2\subj1.ASF
:FULLY-SPECIFIED
:DEGREES
319
root -2.15512 17.797 0.681169 -145.576 84.6537 -153.992
lowerback 1.78581 0.180827 1.17714
upperback -2.41721 0.393822 2.27063
thorax -3.4964 0.214861 1.65771
lowerneck -23.666 -2.57049 -0.588932
upperneck 40.3276 -2.31424 -0.0586088
head 19.6429 -0.524151 -0.293261
rclavicle 1.51573e-015 -5.1684e-015
rhumerus -30.5487 13.2733 -90.0072
rradius 84.313
rwrist -43.4749
rhand -35.4999 12.5815
rfingers 7.12502
rthumb -8.62723 -17.2222
lclavicle 1.51573e-015 -5.1684e-015
lhumerus -35.7794 -10.4 94.5373
lradius 44.9693
lwrist 32.7961
lhand -16.2569 57.9372
lfingers 7.12502
lthumb 9.9523 87.682
rfemur -2.87527 6.98421 21.1454
rtibia 1.33418
rfoot -2.96788 -19.9581
rtoes -5.90776
lfemur -16.632 -21.1104 -9.96361
ltibia 20.1401
lfoot -11.7172 13.61
ltoes -35.2667
320
root -2.16217 17.7981 0.683901 -147.699 84.3339 -156.127
lowerback 1.8368 0.194951 1.19551
upperback -2.36247 0.409004 2.20082
thorax -3.4681 0.220037 1.57444
lowerneck -23.6621 -2.53626 -0.630896
upperneck 40.5392 -2.225 -0.011211
head 19.779 -0.476684 -0.238699
rclavicle 1.43622e-014 1.19271e-014
rhumerus -30.9051 13.9645 -90.6449
rradius 84.7836
rwrist -44.0397
rhand -35.706 13.398
rfingers 7.12502
rthumb -8.82611 -16.3975
lclavicle 1.43622e-014 1.19271e-014
lhumerus -36.5293 -11.8108 95.1028
lradius 47.2703
lwrist 34.2954
lhand -16.2255 58.4046
lfingers 7.12502
lthumb 9.98264 88.1479
rfemur -2.18415 6.59329 20.9996
rtibia -5.56597e-015
rfoot -2.35364 -19.816
rtoes -5.45843
lfemur -16.7844 -21.3969 -9.93889
ltibia 20.1466
lfoot -11.6891 13.5874
ltoes -35.5225
321
root -2.17002 17.7981 0.686686 -149.036 83.9802 -157.434
lowerback 1.93492 0.195794 1.2644
upperback -2.30068 0.410687 2.15858
thorax -3.45885 0.21779 1.4918
lowerneck -23.6631 -2.5013 -0.607156
upperneck 40.7407 -2.12416 -0.0591592
head 19.9074 -0.429504 -0.240366
rclavicle -6.78353e-015 -2.0276e-014
rhumerus -31.2646 14.6695 -91.2588
rradius 85.2666
rwrist -44.6114
rhand -35.7649 14.119
rfingers 7.12502
rthumb -8.88292 -15.674
lclavicle -6.78353e-015 -2.0276e-014
lhumerus -37.0014 -13.0537 95.6724
lradius 49.2543
lwrist 35.8176
lhand -15.8091 58.31
lfingers 7.12502
lthumb 10.3844 88.0336
rfemur -2.11354 6.22112 21.0655
rtibia -3.18055e-015
rfoot -2.42522 -19.8022
rtoes -5.05646
lfemur -16.9141 -21.6682 -9.8501
ltibia 20.1821
lfoot -11.6533 13.5244
ltoes -35.98
322
root -2.1788 17.7989 0.691735 -149.802 83.5362 -158.214
lowerback 1.94575 0.184389 1.39203
upperback -2.24237 0.397816 2.14385
thorax -3.40356 0.207798 1.4055
lowerneck -23.5993 -2.46657 -0.508004
upperneck 40.8843 -2.04057 -0.155899
head 19.9781 -0.385779 -0.283354
rclavicle -8.57259e-015 -2.0276e-014
rhumerus -31.6419 15.3552 -91.8496
rradius 85.7926
rwrist -45.0778
rhand -35.9901 14.7981
rfingers 7.12502
rthumb -9.10026 -14.9855
lclavicle -8.57259e-015 -2.0276e-014
lhumerus -37.1839 -14.2328 96.2619
lradius 50.9593
lwrist 37.4034
lhand -15.3409 57.9635
lfingers 7.12502
lthumb 10.836 87.6639
rfemur -2.08309 5.79696 21.2268
rtibia 7.95139e-016
rfoot -2.55489 -19.7904
rtoes -4.45808
lfemur -17.1225 -21.643 -9.67032
ltibia 20.2158
lfoot -11.5635 13.0988
ltoes -36.4051
323
root -2.19181 17.7937 0.680886 -151.916 82.9215 -160.106
lowerback 2.21704 0.115637 1.70406
upperback -2.15409 0.317895 2.04906
thorax -3.46242 0.157699 1.13631
lowerneck -23.3865 -2.4669 -0.621718
upperneck 40.9659 -2.07877 0.117777
head 19.9794 -0.367874 -0.130062
rclavicle 3.05631e-015 -1.23246e-014
rhumerus -32.0554 15.9351 -92.4185
rradius 86.3302
rwrist -45.3173
rhand -36.19 15.1908
rfingers 7.12502
rthumb -9.2931 -14.5844
lclavicle 3.05631e-015 -1.23246e-014
lhumerus -37.3248 -15.5438 96.9298
lradius 52.6709
lwrist 38.8527
lhand -14.9449 57.8611
lfingers 7.12502
lthumb 11.2179 87.5412
rfemur -1.80001 5.14174 21.2905
rtibia 3.18055e-015
rfoot -2.66225 -19.7913
rtoes -4.27169
lfemur -17.1582 -21.8563 -9.68395
ltibia 20.2693
lfoot -11.4729 12.5982
ltoes -36.276
324
root -2.19308 17.7974 0.699096 -150.675 83.113 -158.904
lowerback 2.13248 0.316355 1.50017
upperback -2.11747 0.574049 2.04946
thorax -3.3804 0.290437 1.23808
lowerneck -23.2443 -2.47636 -0.887182
upperneck 41.1368 -2.12937 0.558426
head 20.0674 -0.351608 0.131639
rclavicle 6.21202e-015 -9.93923e-015
rhumerus -32.4459 16.5569 -92.9571
rradius 86.8001
rwrist -45.3955
rhand -36.3785 15.6793
rfingers 7.12502
rthumb -9.47499 -14.0877
lclavicle 6.21202e-015 -9.93923e-015
lhumerus -37.4197 -16.8102 97.6335
lradius 54.3855
lwrist 39.8829
lhand -14.4012 57.928
lfingers 7.12502
lthumb 11.7422 87.5789
rfemur -1.90318 5.38537 21.382
rtibia 7.95139e-016
rfoot -2.49941 -19.7796
rtoes -4.88348
lfemur -17.1586 -21.5699 -9.59612
ltibia 20.3131
lfoot -11.5554 12.4737
ltoes -35.8633
325
root -2.19697 17.7979 0.697784 -151.852 82.7966 -160.077
lowerback 2.12405 0.275751 1.57555
upperback -2.0809 0.518412 1.99185
thorax -3.33598 0.25977 1.13929
lowerneck -23.1885 -2.3961 -0.947568
upperneck 41.333 -2.01984 0.743507
head 20.1854 -0.27998 0.266587
rclavicle 2.50966e-015 -1.03368e-014
rhumerus -32.7415 17.2746 -93.4677
rradius 87.1505
rwrist -45.3821
rhand -36.6469 16.4386
rfingers 7.12502
rthumb -9.73401 -13.3165
lclavicle 2.50966e-015 -1.03368e-014
lhumerus -37.4304 -18.0006 98.2912
lradius 56.0951
lwrist 40.6769
lhand -13.8762 57.9663
lfingers 7.12502
lthumb 12.2485 87.5876
rfemur -1.85493 5.03715 21.3884
rtibia 0
rfoot -2.55434 -19.7707
rtoes -4.78115
lfemur -17.2886 -21.5517 -9.59184
ltibia 20.3311
lfoot -11.4722 12.0646
ltoes -35.798
326
root -2.20043 17.7971 0.696555 -152.54 82.5693 -160.713
lowerback 2.11985 0.259816 1.63133
upperback -2.03049 0.495389 1.95182
thorax -3.28047 0.246226 1.06793
lowerneck -23.1372 -2.27699 -0.812853
upperneck 41.5495 -1.81048 0.65076
head 20.3075 -0.179228 0.250998
rclavicle 1.05604e-014 -1.15295e-014
rhumerus -32.9832 18.0204 -93.9081
rradius 87.4385
rwrist -45.4089
rhand -36.8279 17.0281
rfingers 7.12502
rthumb -9.90865 -12.7187
lclavicle 1.05604e-014 -1.15295e-014
lhumerus -37.3515 -19.2265 99.0072
lradius 57.7239
lwrist 41.343
lhand -13.6596 57.8184
lfingers 7.12502
lthumb 12.4573 87.4272
rfemur -1.76625 4.79574 21.4108
rtibia -3.97569e-015
rfoot -2.60567 -19.7656
rtoes -4.62029
lfemur -17.3108 -21.5772 -9.5897
ltibia 20.3179
lfoot -11.5974 11.8791
ltoes -35.4901
327
root -2.20197 17.7966 0.695974 -153.06 82.4031 -161.158
lowerback 2.07672 0.245354 1.56043
upperback -1.95537 0.470756 1.98478
thorax -3.17914 0.236253 1.14291
lowerneck -23.1709 -2.14507 -0.669547
upperneck 41.8381 -1.52891 0.452657
head 20.5029 -0.0634532 0.197919
rclavicle 1.48343e-014 2.78299e-015
rhumerus -33.1922 18.895 -94.2336
rradius 87.6975
rwrist -45.6652
rhand -36.9569 17.3983
rfingers 7.12502
rthumb -10.0331 -12.3426
lclavicle 1.48343e-014 2.78299e-015
lhumerus -37.1186 -20.4573 99.8623
lradius 59.2044
lwrist 41.7895
lhand -13.6938 57.7303
lfingers 7.12502
lthumb 12.4244 87.341
rfemur -1.66277 4.61879 21.4307
rtibia -9.54166e-015
rfoot -2.62644 -19.7703
rtoes -4.54497
lfemur -17.2781 -21.6157 -9.61112
ltibia 20.3178
lfoot -11.7544 11.7989
ltoes -35.2046
328
root -2.20227 17.7961 0.695538 -153.573 82.286 -161.6
lowerback 1.99868 0.240552 1.41763
upperback -1.87406 0.456291 2.04025
thorax -3.05251 0.233213 1.28093
lowerneck -23.1719 -2.01691 -0.603443
upperneck 42.0573 -1.26546 0.348735
head 20.6484 0.04359 0.200986
rclavicle -1.46604e-015 2.38542e-015
rhumerus -33.3609 19.8173 -94.5001
rradius 87.8551
rwrist -45.9939
rhand -37.2327 18.0372
rfingers 7.12502
rthumb -10.2992 -11.6906
lclavicle -1.46604e-015 2.38542e-015
lhumerus -36.6925 -21.6116 100.746
lradius 60.4437
lwrist 41.9649
lhand -13.6624 57.8226
lfingers 7.12502
lthumb 12.4546 87.4315
rfemur -1.56326 4.48523 21.427
rtibia -2.38542e-015
rfoot -2.68493 -19.7964
rtoes -4.12318
lfemur -17.2249 -21.6163 -9.66107
ltibia 20.305
lfoot -11.5854 11.6594
ltoes -35.8554
329
root -2.20466 17.7957 0.695476 -153.89 82.17 -161.863
lowerback 1.94722 0.239249 1.38536
upperback -1.85259 0.450639 2.02707
thorax -3.00133 0.230877 1.28587
lowerneck -23.0116 -1.91445 -0.56399
upperneck 42.2312 -1.10285 0.405087
head 20.7198 0.132292 0.267631
rclavicle -4.99446e-015 2.78299e-015
rhumerus -33.5686 20.65 -94.8818
rradius 87.9289
rwrist -46.1136
rhand -37.6418 18.596
rfingers 7.12502
rthumb -10.6937 -11.1119
lclavicle -4.99446e-015 2.78299e-015
lhumerus -36.1752 -22.7249 101.539
lradius 61.4373
lwrist 42.0035
lhand -13.4263 57.9134
lfingers 7.12502
lthumb 12.6823 87.5084
rfemur -1.49141 4.36404 21.4489
rtibia -2.38542e-015
rfoot -2.73035 -19.8492
rtoes -3.59736
lfemur -17.1943 -21.5772 -9.67543
ltibia 20.2834
lfoot -11.4062 11.5053
ltoes -36.6538
330
root -2.20952 17.7947 0.696226 -154.15 82.0379 -162.088
lowerback 1.93728 0.220334 1.40602
upperback -1.87015 0.424455 1.98104
thorax -3.01295 0.216574 1.22815
lowerneck -22.8991 -1.82886 -0.477893
upperneck 42.4631 -0.977636 0.446102
head 20.8459 0.214166 0.310428
rclavicle -2.08475e-014 -1.86858e-014
rhumerus -33.739 21.4448 -95.3069
rradius 87.9392
rwrist -46.1474
rhand -37.8835 18.721
rfingers 7.12502
rthumb -10.9269 -10.9746
lclavicle -2.08475e-014 -1.86858e-014
lhumerus -35.7229 -23.8693 102.291
lradius 62.4587
lwrist 42.1394
lhand -13.2892 57.9786
lfingers 7.12502
lthumb 12.8144 87.5653
rfemur -1.45184 4.23101 21.4836
rtibia 5.56597e-015
rfoot -2.72903 -19.8832
rtoes -3.4605
lfemur -17.2078 -21.6048 -9.65076
ltibia 20.2703
lfoot -11.3678 11.4193
ltoes -36.8125
331
root -2.21338 17.7931 0.697423 -154.46 81.9483 -162.359
lowerback 1.94007 0.207109 1.38608
upperback -1.86584 0.40454 1.94954
thorax -3.00968 0.206418 1.2078
lowerneck -22.9039 -1.74339 -0.394005
upperneck 42.6576 -0.833546 0.42304
head 20.9819 0.289239 0.323446
rclavicle -1.09083e-014 5.1684e-015
rhumerus -33.8154 22.1835 -95.64
rradius 87.8766
rwrist -46.3295
rhand -37.9344 19.028
rfingers 7.12502
rthumb -10.976 -10.6651
lclavicle -1.09083e-014 5.1684e-015
lhumerus -35.3288 -25.0592 103.051
lradius 63.5878
lwrist 42.5763
lhand -13.5296 58.0964
lfingers 7.12502
lthumb 12.5827 87.6975
rfemur -1.39902 4.13296 21.4922
rtibia 1.03368e-014
rfoot -2.75324 -19.8775
rtoes -3.46213
lfemur -17.2039 -21.6183 -9.6553
ltibia 20.2628
lfoot -11.3478 11.3146
ltoes -36.6503
332
root -2.2148 17.7927 0.69731 -154.602 81.9101 -162.444
lowerback 1.92733 0.213242 1.40346
upperback -1.84458 0.410382 1.90705
thorax -2.98013 0.208172 1.15409
lowerneck -22.8959 -1.63593 -0.300733
upperneck 42.7739 -0.665308 0.392871
head 21.0596 0.37039 0.334981
rclavicle 8.97016e-015 -8.34896e-015
rhumerus -33.8714 22.7614 -95.9507
rradius 87.7762
rwrist -46.6035
rhand -37.9706 19.682
rfingers 7.12502
rthumb -11.0109 -10.0092
lclavicle 8.97016e-015 -8.34896e-015
lhumerus -34.8924 -26.2741 103.757
lradius 64.6482
lwrist 43.2196
lhand -13.5718 57.8712
lfingers 7.12502
lthumb 12.5419 87.4748
rfemur -1.32174 4.09205 21.5036
rtibia 1.19271e-014
rfoot -2.80135 -19.8781
rtoes -3.26081
lfemur -17.1522 -21.5616 -9.68208
ltibia 20.2583
lfoot -11.3491 11.1969
ltoes -36.583
